<svg width="1767" height="1767" viewBox="0 0 1767 1767" fill="none" xmlns="http://www.w3.org/2000/svg">
<path d="M913 465.231L1230.59 648.59C1248.94 659.189 1260.25 678.777 1260.25 699.975V1066.69C1260.25 1087.89 1248.94 1107.48 1230.59 1118.08L913 1301.44C894.642 1312.03 872.024 1312.03 853.666 1301.44L536.079 1118.08C517.721 1107.48 506.413 1087.89 506.413 1066.69V699.975C506.413 678.777 517.721 659.189 536.079 648.59L853.666 465.231C872.024 454.632 894.642 454.632 913 465.231Z" stroke="white" stroke-opacity="0.3" stroke-width="1.33333"/>
<path d="M913.167 655.898L1065.78 744.007C1084.13 754.606 1095.44 774.193 1095.44 795.391V971.609C1095.44 992.807 1084.13 1012.39 1065.78 1022.99L913.167 1111.1C894.809 1121.7 872.191 1121.7 853.833 1111.1L701.224 1022.99C682.866 1012.39 671.557 992.807 671.557 971.609V795.391C671.557 774.193 682.866 754.606 701.224 744.007L853.833 655.898C872.191 645.299 894.809 645.299 913.167 655.898Z" stroke="white" stroke-opacity="0.3" stroke-width="1.33333"/>
<path d="M913 284.564L1387.05 558.257C1405.41 568.856 1416.72 588.443 1416.72 609.641V1157.03C1416.72 1178.22 1405.41 1197.81 1387.05 1208.41L913 1482.1C894.643 1492.7 872.025 1492.7 853.667 1482.1L379.618 1208.41C361.26 1197.81 349.951 1178.22 349.951 1157.03V609.641C349.951 588.443 361.26 568.856 379.618 558.257L853.667 284.564C872.025 273.965 894.643 273.965 913 284.564Z" stroke="white" stroke-opacity="0.3" stroke-width="1.33333"/>
<path d="M913 17.8979L1617.99 424.924C1636.35 435.522 1647.66 455.11 1647.66 476.308V1290.36C1647.66 1311.56 1636.35 1331.14 1617.99 1341.74L913 1748.77C894.642 1759.37 872.024 1759.37 853.667 1748.77L148.678 1341.74C130.32 1331.14 119.011 1311.56 119.011 1290.36V476.308C119.011 455.11 130.32 435.522 148.678 424.923L853.667 17.8978C872.025 7.29894 894.642 7.29898 913 17.8979Z" stroke="white" stroke-opacity="0.3" stroke-width="1.33333"/>
</svg>
